<svg width="38" height="38" viewBox="0 0 38 38" fill="none" xmlns="http://www.w3.org/2000/svg">
<g id="check-circle">
<path id="Vector (Stroke)" fill-rule="evenodd" clip-rule="evenodd" d="M24.7997 5.97454C21.9929 4.72387 18.8569 4.41404 15.8596 5.09125C12.8622 5.76846 10.1641 7.39644 8.16753 9.73237C6.171 12.0683 4.98306 14.987 4.78087 18.0533C4.57868 21.1195 5.37309 24.169 7.0456 26.7469C8.71811 29.3247 11.1791 31.2929 14.0616 32.3578C16.9441 33.4227 20.0936 33.5274 23.0404 32.6561C25.9872 31.7848 28.5734 29.9843 30.4133 27.5231C32.2532 25.062 33.2482 22.0719 33.25 18.999V17.5433C33.25 16.6688 33.9589 15.9599 34.8333 15.9599C35.7078 15.9599 36.4167 16.6688 36.4167 17.5433V18.9999C36.4145 22.7557 35.1984 26.4111 32.9496 29.4192C30.7008 32.4273 27.5399 34.6279 23.9382 35.6928C20.3366 36.7577 16.4872 36.6298 12.9642 35.3283C9.44116 34.0267 6.43325 31.6211 4.38907 28.4704C2.34489 25.3197 1.37395 21.5926 1.62107 17.8449C1.86818 14.0973 3.32012 10.53 5.76032 7.67492C8.20052 4.81989 11.4982 2.83015 15.1617 2.00244C18.8251 1.17474 22.6579 1.55342 26.0886 3.08202C26.8873 3.43792 27.2463 4.37395 26.8904 5.1727C26.5345 5.97145 25.5985 6.33045 24.7997 5.97454Z" fill="white"/>
<path id="Vector (Stroke)_2" fill-rule="evenodd" clip-rule="evenodd" d="M35.9524 5.21319C36.571 5.83121 36.5715 6.83372 35.9535 7.45236L20.1201 23.3015C19.8233 23.5987 19.4204 23.7657 19.0004 23.7658C18.5803 23.7659 18.1774 23.5991 17.8804 23.3021L13.1304 18.5521C12.5121 17.9338 12.5121 16.9312 13.1304 16.3129C13.7487 15.6946 14.7512 15.6946 15.3696 16.3129L18.9994 19.9428L33.7132 5.21431C34.3312 4.59567 35.3337 4.59517 35.9524 5.21319Z" fill="white"/>
</g>
</svg>
