<svg width="38" height="38" viewBox="0 0 38 38" fill="none" xmlns="http://www.w3.org/2000/svg">
<g id="clock">
<path id="Vector (Stroke)" fill-rule="evenodd" clip-rule="evenodd" d="M19 4.74992C11.1299 4.74992 4.75 11.1299 4.75 18.9999C4.75 26.87 11.1299 33.2499 19 33.2499C26.8701 33.2499 33.25 26.87 33.25 18.9999C33.25 11.1299 26.8701 4.74992 19 4.74992ZM1.58333 18.9999C1.58333 9.38096 9.38104 1.58325 19 1.58325C28.619 1.58325 36.4167 9.38096 36.4167 18.9999C36.4167 28.6189 28.619 36.4166 19 36.4166C9.38104 36.4166 1.58333 28.6189 1.58333 18.9999Z" fill="white"/>
<path id="Vector (Stroke)_2" fill-rule="evenodd" clip-rule="evenodd" d="M19 7.91675C19.8744 7.91675 20.5833 8.62563 20.5833 9.50008V18.0215L26.0414 20.7506C26.8236 21.1416 27.1406 22.0927 26.7495 22.8748C26.3584 23.657 25.4074 23.974 24.6252 23.5829L18.2919 20.4163C17.7555 20.1481 17.4167 19.5998 17.4167 19.0001V9.50008C17.4167 8.62563 18.1255 7.91675 19 7.91675Z" fill="white"/>
</g>
</svg>
