<svg width="38" height="38" viewBox="0 0 38 38" fill="none" xmlns="http://www.w3.org/2000/svg">
<g id="Medical Symbol">
<path id="Vector (Stroke)" fill-rule="evenodd" clip-rule="evenodd" d="M19 2.43438C9.34278 2.43438 2.43438 9.34278 2.43438 19C2.43438 28.6572 9.34278 35.5656 19 35.5656C28.6572 35.5656 35.5656 28.6572 35.5656 19C35.5656 9.34278 28.6572 2.43438 19 2.43438ZM0.59375 19C0.59375 8.32623 8.32623 0.59375 19 0.59375C29.6738 0.59375 37.4062 8.32623 37.4062 19C37.4062 29.6738 29.6738 37.4062 19 37.4062C8.32623 37.4062 0.59375 29.6738 0.59375 19Z" fill="white" stroke="white"/>
<g id="Vector (Stroke)_2">
<path fill-rule="evenodd" clip-rule="evenodd" d="M17.8073 10.7612C17.5341 10.7798 17.4066 10.813 17.3263 10.8463C16.989 10.9859 16.721 11.2539 16.5813 11.5912C16.5481 11.6715 16.5149 11.799 16.4963 12.0722C16.4771 12.3536 16.4766 12.7179 16.4766 13.2649V15.4488C16.4766 15.4496 16.4785 15.5416 16.4664 15.6315C16.4507 15.7483 16.3986 15.9847 16.1917 16.1917C15.9847 16.3986 15.7483 16.4507 15.6315 16.4664C15.5416 16.4785 15.4497 16.4766 15.4488 16.4766H13.2649C12.7179 16.4766 12.3536 16.4771 12.0722 16.4963C11.799 16.5149 11.6715 16.5481 11.5912 16.5813C11.2539 16.721 10.9859 16.989 10.8463 17.3263C10.813 17.4066 10.7798 17.5341 10.7612 17.8073C10.742 18.0887 10.7415 18.453 10.7415 19C10.7415 19.547 10.742 19.9113 10.7612 20.1927C10.7798 20.4659 10.813 20.5934 10.8463 20.6737C10.986 21.011 11.2539 21.279 11.5912 21.4187C11.6715 21.4519 11.799 21.4851 12.0722 21.5037C12.3536 21.5229 12.7179 21.5234 13.2649 21.5234H15.4488C15.4488 21.5234 15.5412 21.5215 15.6315 21.5336C15.7483 21.5493 15.9847 21.6014 16.1917 21.8083C16.3986 22.0153 16.4507 22.2517 16.4664 22.3685C16.4785 22.4588 16.4766 22.5512 16.4766 22.5512V24.7351C16.4766 25.2821 16.4771 25.6464 16.4963 25.9278C16.5149 26.201 16.5481 26.3285 16.5813 26.4088C16.721 26.7461 16.989 27.014 17.3262 27.1537C17.4066 27.187 17.5341 27.2202 17.8073 27.2388C18.0887 27.258 18.453 27.2585 19 27.2585C19.547 27.2585 19.9113 27.258 20.1927 27.2388C20.4659 27.2202 20.5934 27.187 20.6737 27.1537C21.011 27.014 21.279 26.7461 21.4187 26.4088C21.4519 26.3285 21.4851 26.201 21.5037 25.9278C21.5229 25.6464 21.5234 25.2821 21.5234 24.7351V22.5512C21.5234 22.5512 21.5215 22.4588 21.5336 22.3685C21.5493 22.2517 21.6014 22.0153 21.8083 21.8083C22.0153 21.6014 22.2517 21.5493 22.3685 21.5336C22.4588 21.5215 22.5512 21.5234 22.5512 21.5234H24.7351C25.2821 21.5234 25.6464 21.5229 25.9278 21.5037C26.201 21.4851 26.3285 21.4519 26.4088 21.4187C26.7461 21.279 27.014 21.011 27.1537 20.6738C27.187 20.5934 27.2202 20.4659 27.2388 20.1927C27.258 19.9113 27.2585 19.547 27.2585 19C27.2585 18.453 27.258 18.0887 27.2388 17.8073C27.2202 17.5341 27.187 17.4066 27.1537 17.3263C27.014 16.989 26.7461 16.721 26.4088 16.5813C26.3285 16.5481 26.201 16.5149 25.9278 16.4963C25.6464 16.4771 25.2821 16.4766 24.7351 16.4766H22.5512C22.5512 16.4766 22.4588 16.4785 22.3685 16.4664C22.2517 16.4507 22.0153 16.3986 21.8083 16.1917C21.6014 15.9847 21.5493 15.7483 21.5336 15.6315C21.5215 15.5412 21.5234 15.4488 21.5234 15.4488V13.2649C21.5234 12.7179 21.5229 12.3536 21.5037 12.0722C21.4851 11.799 21.4519 11.6715 21.4187 11.5912C21.279 11.2539 21.011 10.986 20.6737 10.8463C20.5934 10.813 20.4659 10.7798 20.1927 10.7612C19.9113 10.742 19.547 10.7415 19 10.7415C18.453 10.7415 18.0887 10.742 17.8073 10.7612ZM18.9694 8.90625H19.0306C19.539 8.90624 19.9663 8.90623 20.3177 8.93021C20.6843 8.95522 21.0348 9.00938 21.3761 9.15072C22.163 9.47669 22.7882 10.1019 23.1142 10.8889C23.2555 11.2301 23.3097 11.5806 23.3347 11.9473C23.3587 12.2986 23.3587 12.7259 23.3587 13.2343V14.6413H24.7657C25.2741 14.6413 25.7014 14.6413 26.0527 14.6653C26.4194 14.6903 26.7699 14.7445 27.1111 14.8858C27.8981 15.2118 28.5233 15.837 28.8493 16.6239C28.9906 16.9652 29.0448 17.3157 29.0698 17.6823C29.0938 18.0337 29.0938 18.461 29.0937 18.9694V19.0306C29.0938 19.539 29.0938 19.9663 29.0698 20.3177C29.0448 20.6843 28.9906 21.0348 28.8493 21.3761C28.5233 22.163 27.8981 22.7882 27.1111 23.1142C26.7699 23.2555 26.4194 23.3097 26.0527 23.3347C25.7014 23.3587 25.2741 23.3587 24.7657 23.3587H23.3587V24.7657C23.3587 25.2741 23.3587 25.7014 23.3347 26.0527C23.3097 26.4194 23.2555 26.7699 23.1142 27.1111C22.7882 27.8981 22.163 28.5233 21.3761 28.8493C21.0348 28.9906 20.6843 29.0448 20.3177 29.0698C19.9663 29.0938 19.539 29.0938 19.0306 29.0937H18.9694C18.461 29.0938 18.0337 29.0938 17.6823 29.0698C17.3157 29.0448 16.9652 28.9906 16.6239 28.8493C15.837 28.5233 15.2118 27.8981 14.8858 27.1111C14.7445 26.7699 14.6903 26.4194 14.6653 26.0527C14.6413 25.7014 14.6413 25.2741 14.6413 24.7657V23.3587H13.2343C12.7259 23.3587 12.2986 23.3587 11.9473 23.3347C11.5806 23.3097 11.2301 23.2555 10.8889 23.1142C10.1019 22.7882 9.47669 22.163 9.15072 21.3761C9.00938 21.0348 8.95522 20.6843 8.93021 20.3177C8.90623 19.9663 8.90624 19.539 8.90625 19.0306V18.9694C8.90624 18.461 8.90623 18.0337 8.93021 17.6823C8.95522 17.3157 9.00938 16.9652 9.15072 16.6239C9.47669 15.837 10.1019 15.2118 10.8889 14.8858C11.2301 14.7445 11.5806 14.6903 11.9473 14.6653C12.2986 14.6413 12.7259 14.6413 13.2343 14.6413H14.6413V13.2343C14.6413 12.7259 14.6413 12.2986 14.6653 11.9473C14.6903 11.5806 14.7445 11.2301 14.8858 10.8889C15.2118 10.1019 15.837 9.47669 16.6239 9.15072C16.9652 9.00938 17.3157 8.95522 17.6823 8.93021C18.0337 8.90623 18.461 8.90624 18.9694 8.90625Z" fill="white"/>
<path d="M10.8889 14.8858C10.1019 15.2118 9.47669 15.837 9.15072 16.6239C9.00938 16.9652 8.95522 17.3157 8.93021 17.6823C8.90623 18.0337 8.90624 18.461 8.90625 18.9694V19.0306C8.90624 19.539 8.90623 19.9663 8.93021 20.3177C8.95522 20.6843 9.00938 21.0348 9.15072 21.3761C9.47669 22.163 10.1019 22.7882 10.8889 23.1142C11.2301 23.2555 11.5806 23.3097 11.9473 23.3347C12.2986 23.3587 12.7259 23.3587 13.2343 23.3587H14.6413V24.7657C14.6413 25.2741 14.6413 25.7014 14.6653 26.0527C14.6903 26.4194 14.7445 26.7699 14.8858 27.1111C15.2118 27.8981 15.837 28.5233 16.6239 28.8493C16.9652 28.9906 17.3157 29.0448 17.6823 29.0698C18.0337 29.0938 18.461 29.0938 18.9694 29.0937H19.0306C19.539 29.0938 19.9663 29.0938 20.3177 29.0698C20.6843 29.0448 21.0348 28.9906 21.3761 28.8493C22.163 28.5233 22.7882 27.8981 23.1142 27.1111C23.2555 26.7699 23.3097 26.4194 23.3347 26.0527C23.3587 25.7014 23.3587 25.2741 23.3587 24.7657V23.3587H24.7657C25.2741 23.3587 25.7014 23.3587 26.0527 23.3347C26.4194 23.3097 26.7699 23.2555 27.1111 23.1142C27.8981 22.7882 28.5233 22.163 28.8493 21.3761C28.9906 21.0348 29.0448 20.6843 29.0698 20.3177C29.0938 19.9663 29.0938 19.539 29.0937 19.0306V18.9694C29.0938 18.461 29.0938 18.0337 29.0698 17.6823C29.0448 17.3157 28.9906 16.9652 28.8493 16.6239C28.5233 15.837 27.8981 15.2118 27.1111 14.8858C26.7699 14.7445 26.4194 14.6903 26.0527 14.6653C25.7014 14.6413 25.2741 14.6413 24.7657 14.6413H23.3587V13.2343C23.3587 12.7259 23.3587 12.2986 23.3347 11.9473C23.3097 11.5806 23.2555 11.2301 23.1142 10.8889C22.7882 10.1019 22.163 9.47669 21.3761 9.15072C21.0348 9.00938 20.6843 8.95522 20.3177 8.93021C19.9663 8.90623 19.539 8.90624 19.0306 8.90625H18.9694C18.461 8.90624 18.0337 8.90623 17.6823 8.93021C17.3157 8.95522 16.9652 9.00938 16.6239 9.15072M10.8889 14.8858L11.24 15.7336M10.8889 14.8858C11.2301 14.7445 11.5806 14.6903 11.9473 14.6653C12.2986 14.6413 12.7259 14.6413 13.2343 14.6413H14.6413V13.2343C14.6413 12.7259 14.6413 12.2986 14.6653 11.9473C14.6903 11.5806 14.7445 11.2301 14.8858 10.8889M14.8858 10.8889L15.7336 11.24M14.8858 10.8889C15.2118 10.1019 15.837 9.47669 16.6239 9.15072M16.6239 9.15072L16.9751 9.99849M17.3262 10.8463C17.4066 10.813 17.5341 10.7798 17.8073 10.7612C18.0887 10.742 18.453 10.7415 19 10.7415C19.547 10.7415 19.9113 10.742 20.1927 10.7612C20.4659 10.7798 20.5934 10.813 20.6737 10.8463C21.011 10.986 21.279 11.2539 21.4187 11.5912C21.4519 11.6715 21.4851 11.799 21.5037 12.0722C21.5229 12.3536 21.5234 12.7179 21.5234 13.2649V15.4488C21.5234 15.4488 21.5215 15.5412 21.5336 15.6315C21.5493 15.7483 21.6014 15.9847 21.8083 16.1917C22.0153 16.3986 22.2517 16.4507 22.3685 16.4664C22.4588 16.4785 22.5512 16.4766 22.5512 16.4766H24.7351C25.2821 16.4766 25.6464 16.4771 25.9278 16.4963C26.201 16.5149 26.3285 16.5481 26.4088 16.5813C26.7461 16.721 27.0141 16.989 27.1537 17.3262C27.187 17.4066 27.2202 17.5341 27.2388 17.8073C27.258 18.0887 27.2585 18.453 27.2585 19C27.2585 19.547 27.258 19.9113 27.2388 20.1927C27.2202 20.4659 27.187 20.5934 27.1537 20.6738C27.0141 21.011 26.7461 21.279 26.4088 21.4187C26.3285 21.4519 26.201 21.4851 25.9278 21.5037C25.6464 21.5229 25.2821 21.5234 24.7351 21.5234H22.5512C22.5512 21.5234 22.4588 21.5215 22.3685 21.5336C22.2517 21.5493 22.0153 21.6014 21.8083 21.8083C21.6014 22.0153 21.5493 22.2517 21.5336 22.3685C21.5215 22.4588 21.5234 22.5512 21.5234 22.5512V24.7351C21.5234 25.2821 21.5229 25.6464 21.5037 25.9278C21.4851 26.201 21.4519 26.3285 21.4187 26.4088C21.279 26.7461 21.011 27.0141 20.6738 27.1537C20.5934 27.187 20.4659 27.2202 20.1927 27.2388C19.9113 27.258 19.547 27.2585 19 27.2585C18.453 27.2585 18.0887 27.258 17.8073 27.2388C17.5341 27.2202 17.4066 27.187 17.3262 27.1537C16.989 27.0141 16.721 26.7461 16.5813 26.4088C16.5481 26.3285 16.5149 26.201 16.4963 25.9278C16.4771 25.6464 16.4766 25.2821 16.4766 24.7351V22.5512C16.4766 22.5512 16.4785 22.4588 16.4664 22.3685C16.4507 22.2517 16.3986 22.0153 16.1917 21.8083C15.9847 21.6014 15.7483 21.5493 15.6315 21.5336C15.5412 21.5215 15.4488 21.5234 15.4488 21.5234H13.2649C12.7179 21.5234 12.3536 21.5229 12.0722 21.5037C11.799 21.4851 11.6715 21.4519 11.5912 21.4187C11.2539 21.279 10.986 21.011 10.8463 20.6737C10.813 20.5934 10.7798 20.4659 10.7612 20.1927C10.742 19.9113 10.7415 19.547 10.7415 19C10.7415 18.453 10.742 18.0887 10.7612 17.8073C10.7798 17.5341 10.813 17.4066 10.8463 17.3262C10.9859 16.989 11.2539 16.721 11.5912 16.5813C11.6715 16.5481 11.799 16.5149 12.0722 16.4963C12.3536 16.4771 12.7179 16.4766 13.2649 16.4766H15.4488C15.4497 16.4766 15.5416 16.4785 15.6315 16.4664C15.7483 16.4507 15.9847 16.3986 16.1917 16.1917C16.3986 15.9847 16.4507 15.7483 16.4664 15.6315C16.4785 15.5416 16.4766 15.4496 16.4766 15.4488V13.2649C16.4766 12.7179 16.4771 12.3536 16.4963 12.0722C16.5149 11.799 16.5481 11.6715 16.5813 11.5912C16.721 11.2539 16.989 10.986 17.3262 10.8463Z" stroke="white"/>
</g>
</g>
</svg>
